<?xml version="1.0" encoding="UTF-8"?><svg id="Layer_1" xmlns="http://www.w3.org/2000/svg" viewBox="0 0 510.87 434"><path d="M510.87,339.75c-.34,.75-.72,1.48-1,2.25-2.98,8.11-8.73,12.94-17.33,13.64-8.83,.72-15.43-3.24-19.57-11.06-15.15-28.65-34.99-53.71-58.57-75.81-31.53-29.56-67.34-51.89-109.59-62.62-53.53-13.6-104.26-5.05-152.18,21.2-49.41,27.07-87.15,65.96-113.91,115.52-5.41,10.02-13.8,14.58-23.04,12.5-13.2-2.98-19.55-16.88-13.19-29.3,12.66-24.7,28.58-47.17,47.29-67.62,35.39-38.69,77-68.36,126.94-85.19,68.11-22.95,134.12-16.51,197.14,17.28,57.15,30.64,100.73,75.45,132.47,131.87,1.7,3.02,3.03,6.23,4.54,9.36v7.98Z"/><path d="M255.26,434c-54.11-.08-97.85-43.93-97.85-98.12,0-54.45,43.88-98.25,98.31-98.11,54.12,.14,97.72,44.06,97.61,98.31-.12,54.2-43.98,98-98.06,97.92Zm.54-156.31c-32.16-.17-58.25,25.53-58.47,57.6-.22,32.4,25.61,58.66,57.85,58.78,32,.13,58.08-25.81,58.22-57.91,.14-32.19-25.58-58.3-57.6-58.47Z"/><path d="M64.85,185.51c-4.22-2.03-9.11-3.28-12.53-6.23-15.2-13.14-30.08-26.65-44.85-40.27-8.27-7.63-8.65-19.6-1.4-27.78,7.25-8.17,19.31-9.35,27.71-1.99,15.37,13.45,30.49,27.19,45.5,41.04,6.33,5.83,7.75,14.3,4.51,21.97-3.17,7.5-10.2,12.13-18.94,13.26Z"/><path d="M447.63,184.48c-10.71-.32-16.88-4.15-20.49-11.76-3.45-7.29-2.35-16.14,3.61-21.68,15.44-14.36,31.03-28.58,46.98-42.36,8.04-6.95,19.88-5.35,26.91,2.52,6.82,7.64,7.17,19.56-.37,26.68-15.33,14.47-31.09,28.5-47.01,42.32-3.03,2.63-7.64,3.44-9.63,4.28Z"/><path d="M275.33,50.01c0,9.63,.06,19.27-.02,28.9-.1,11.99-8.81,20.96-20.12,20.84-11.19-.12-19.72-8.93-19.76-20.67-.08-19.44-.07-38.87,0-58.31C235.47,8.7,244.07-.09,255.53,0c11.26,.09,19.67,8.78,19.78,20.6,.09,9.8,.02,19.6,.02,29.4Z"/></svg>