<?xml version="1.0" encoding="UTF-8"?><svg id="Layer_1" xmlns="http://www.w3.org/2000/svg" viewBox="0 0 511.11 409.81"><path d="M0,23.25C2.6,16.38,5.36,9.35,12.1,5.66,16.77,3.1,22.18,1.85,27.34,.25c1.53-.47,3.3-.14,4.97-.14,111.95,0,223.9-.03,335.84,.1,5.05,0,10.51,.52,15.05,2.48,10.83,4.66,16.92,13.47,17.04,25.38,.28,26.28,.14,52.57,.08,78.86-.02,7.44-5,12.73-11.75,12.9-6.88,.17-12.21-5.3-12.23-12.94-.07-24.95-.02-49.91-.04-74.87,0-6.84-.96-7.8-7.76-7.8-112.28,0-224.56,0-336.84,0-6.49,0-7.65,1.11-7.65,7.44-.01,66.71-.01,133.43,0,200.14,0,6.18,1.12,7.31,7.25,7.33,9.81,.04,19.63-.03,29.44,.03,9.81,.06,14.22,4.55,14.24,14.41,.03,16.97,.03,33.94,.05,50.91,0,1.61,0,3.22,0,6.23,2.2-2.08,3.47-3.23,4.68-4.44,20.35-20.35,40.77-40.64,60.98-61.12,4.17-4.22,8.68-6.33,14.59-6.05,5.64,.27,11.31-.02,16.96,.08,8.24,.15,13.53,5,13.48,12.19-.05,7.07-5.25,12.74-13.13,11.67-12.4-1.68-20.18,3.98-28.23,12.34-23.32,24.19-47.4,47.64-71.09,71.47-3.95,3.97-8.29,6.13-13.87,4.5-5.42-1.58-8.41-6.33-8.42-13.23-.03-22.96-.01-45.92-.01-68.88,0-1.79,0-3.58,0-5.93-5.43,0-10.39,0-15.34,0-20.95,0-27.56-4.35-35.62-23.4V23.25Z"/><path d="M474.07,345.51c0,7.61,0,14.72,0,21.82,0,9.65-.03,19.3,0,28.95,.02,5.65-1.99,10.16-7.37,12.45-5.59,2.38-10.29,.61-14.44-3.55-18.55-18.63-37.22-37.13-55.66-55.86-2.83-2.87-5.65-3.88-9.59-3.87-47.58,.12-95.16,.11-142.73,.06-15.6-.02-27.09-8.89-30.08-23.18-.57-2.73-.59-5.61-.6-8.43-.03-44.92-.03-89.85-.02-134.77,0-19.9,11.6-31.58,31.64-31.64,29.78-.09,59.56-.02,89.33-.02,48.08,0,96.15,.03,144.23-.03,8.79-.01,16.84,1.73,23.36,8.08,5.62,5.47,8.85,12.14,8.87,19.97,.09,47.25,.16,94.5-.01,141.76-.06,15.61-12.45,27.53-28.53,28.23-2.61,.11-5.24,.02-8.4,.02Zm-24.03,23c0-12.45-.07-23.41,.02-34.35,.06-7.88,4.35-12.38,12.25-12.73,5.64-.25,11.31-.07,16.96-.11,6.67-.05,7.75-1.13,7.75-7.91,0-44.58,0-89.15,0-133.73,0-7.11-.84-7.92-8.14-7.92-77.66,0-155.33,0-232.99,0-7.59,0-8.27,.68-8.27,8.26,0,44.08,0,88.15,0,132.23,0,8.42,.64,9.07,9.07,9.07,48.73,0,97.45,.09,146.18-.1,6.83-.03,11.96,2,16.72,6.98,11.72,12.26,23.9,24.08,35.9,36.07,1.14,1.13,2.35,2.19,4.55,4.24Z"/><path d="M199.64,103.94c-35.74,0-71.49,.02-107.23-.02-8.82-.01-14.18-5.07-13.81-12.77,.28-5.79,4.43-10.38,10.21-11.09,2.13-.26,4.31-.22,6.47-.22,69.99-.01,139.98,0,209.97,0,1.99,0,4-.03,5.98,.18,5.88,.63,10.08,4.97,10.58,10.77,.5,5.82-2.88,10.93-8.54,12.44-2.21,.59-4.59,.68-6.9,.69-35.58,.04-71.15,.03-106.73,.03Z"/><path d="M132.25,159.47c13.3,0,26.6,0,39.9,0,5.8,0,10.42,1.98,12.73,7.71,2.64,6.54-.99,14.01-7.79,15.81-1.9,.5-3.94,.64-5.92,.64-26.1,.04-52.21,.05-78.31,.01-8.26-.01-13.33-3.8-14.16-10.34-1-7.96,4.26-13.66,13.15-13.78,12.14-.16,24.27-.05,36.41-.05,1.33,0,2.66,0,3.99,0Z"/><path d="M306.48,234.58c6.67,.1,11.98,5.53,11.85,12.11-.13,6.52-5.75,11.98-12.23,11.86-6.55-.11-11.82-5.6-11.75-12.24,.08-6.7,5.38-11.83,12.12-11.73Z"/><path d="M362.15,234.57c6.72-.08,12.08,5.1,12.17,11.76,.08,6.57-5.28,12.1-11.83,12.21-6.53,.11-12.05-5.29-12.13-11.88-.09-6.7,5.09-12.01,11.8-12.09Z"/><path d="M406.31,246.09c.23-6.63,5.71-11.71,12.42-11.51,6.71,.2,11.75,5.59,11.54,12.33-.2,6.58-5.87,11.91-12.36,11.64-6.57-.28-11.82-5.91-11.6-12.45Z"/></svg>