<?xml version="1.0" encoding="UTF-8"?><svg id="Layer_1" xmlns="http://www.w3.org/2000/svg" viewBox="0 0 459.11 511.02"><path d="M320.34,511.02c-11.77-3.6-18.7-11.24-20.53-23.63-1.92-12.96,5.85-25.39,18.77-28.29,13.29-2.99,26.71-5.35,40.08-8,1.77-.35,3.53-.77,5.71-1.25-7.33-37.55-14.6-74.82-21.88-112.08-35.99-3.96-56.17-28.15-72.7-56.46-15.02-25.72-22.79-53.99-27.33-83.3-6.3-40.64-7.57-81.39-4.01-122.34,1.49-17.2,1.85-17.66,18.94-20.95,27.9-5.37,55.77-10.85,83.65-16.33,8.41-1.65,11.52-.35,15.47,7.03,25.11,46.96,43,96.5,51.12,149.17,5.29,34.3,3.82,68.38-10.39,100.83-6.82,15.57-16.68,28.68-32.26,36.73-1.18,.61-2.49,2.82-2.26,4,6.9,36.05,13.99,72.07,21.06,108.1,.09,.46,.41,.89,.84,1.78,12.74-2.5,25.57-4.96,38.38-7.55,7.77-1.58,15.43-2.59,22.79,1.63,8.92,5.11,14.58,16.97,13.13,27.7-1.46,10.83-8.84,19.04-20.16,21.32-33.72,6.78-67.49,13.27-101.23,19.91-2.75,.54-5.45,1.32-8.17,1.99h-8.99Zm-58.57-318.98h125.39c-8.67-47-24.42-91-46.19-133.21-27.55,5.38-54.86,10.71-82.23,16.06-3.55,39.33-2.88,78.1,3.03,117.15Zm3.79,20.68c4.99,22.75,12.58,43.93,24.49,63.34,8.21,13.38,17.71,25.74,31.31,34.29,18.26,11.48,35.61,8.62,48.81-8.31,9.09-11.67,13.61-25.3,16.41-39.64,3.2-16.37,4.34-32.83,2.68-49.68h-123.7Zm59.97,278.21c.64-.14,1.61-.37,2.58-.56,19.89-3.85,39.79-7.69,59.68-11.55,15-2.91,29.99-5.86,44.98-8.8,5.74-1.12,6.97-3.07,5.78-8.12-1.14-4.85-4.17-5.22-8.31-4.4-25.09,4.96-50.2,9.8-75.31,14.69-10.11,1.97-20.21,3.96-30.31,5.95-3.42,.67-5.44,2.53-4.85,6.23,.51,3.17,1.13,6.41,5.75,6.56Z"/><path d="M129.64,511.02c-12.99-2.67-25.97-5.41-38.99-7.99-23.46-4.66-46.95-9.16-70.4-13.87-10.64-2.14-17.74-8.57-19.66-19.31-1.89-10.55,.61-20.25,9.23-27.4,6.28-5.21,13.69-6.36,21.62-4.79,14.17,2.81,28.36,5.54,43.38,8.47,6.95-37.38,13.88-74.67,20.68-111.21-6.8-5.42-13.9-9.89-19.52-15.78-14.88-15.6-21.37-35.32-25.18-56-6.17-33.49-2.68-66.49,5.3-99.29,10.02-41.2,24.88-80.53,44.85-117.92,4.27-8,7.07-9.2,16.18-7.42,29.83,5.83,59.67,11.62,89.52,17.39,8.7,1.68,10.95,4.37,11.93,13.24,4.23,38.2,3.54,76.37-1.14,114.45-4.56,37.07-13.51,72.84-33.8,104.86-11.45,18.07-25,34.2-45.05,43.18-6.25,2.8-13.37,3.63-20.02,5.61-1.4,.42-3.37,1.74-3.59,2.92-6.89,36.38-13.59,72.79-20.43,109.77,10.55,2.08,20.92,4.13,31.3,6.18,4.4,.87,8.83,1.6,13.19,2.62,12.22,2.87,19.92,11.69,20.42,23.21,.59,13.53-6.41,24.05-18.65,28.08-.76,.25-1.46,.67-2.19,1.01h-8.99ZM116.62,58.83c-25.61,51.65-45.14,104.83-49.02,162.83,1.35,.29,1.83,.48,2.31,.48,38.93,.02,77.86,0,116.79,.12,3.22,.01,3.94-1.55,4.34-4.08,2.79-18.05,6.38-36.01,8.25-54.15,2.9-28.17,2.59-56.45,.3-84.71-.29-3.6-1.62-4.78-4.86-5.4-25.78-4.91-51.53-9.94-78.1-15.09Zm-48.22,183.73c1.99,22.45,6.4,43.67,20.83,61.48,5.13,6.33,11.66,10.86,19.86,12.49,12.93,2.57,23.45-2.91,33.09-10.45,15.71-12.29,25.93-28.78,34.43-46.46,2.62-5.46,4.79-11.13,7.31-17.06H68.4ZM26.39,457.12c-5.14-.13-5.68,3.22-6.22,6.35-.77,4.4,2.06,5.81,5.7,6.52,35.05,6.79,70.1,13.61,105.15,20.42,5.29,1.03,6.96-.13,8.05-5.22,1.05-4.9-1.59-6.44-5.81-7.25-26.91-5.19-53.79-10.5-80.68-15.76-8.96-1.75-17.93-3.47-26.19-5.06Z"/><path d="M217.44,26.12c0-5.15-.12-10.31,.03-15.46,.18-6.21,4.16-10.48,9.65-10.66,5.59-.18,10.11,4.21,10.24,10.61,.21,10.47,.22,20.95-.01,31.42-.14,6.2-4.44,10.36-9.93,10.38-5.67,.02-9.78-4.35-9.95-10.83-.13-5.15-.03-10.31-.02-15.46Z"/><path d="M193.23,42.63c-1.43-1.1-4.73-2.67-6.57-5.27-4.31-6.09-8.06-12.6-11.77-19.09-3.23-5.65-1.85-11.55,3-14.43,4.69-2.78,10.45-1.4,13.84,3.82,4.17,6.4,8.21,12.91,11.86,19.62,4,7.33-.72,15.58-10.37,15.36Z"/><path d="M283.6,14.04c-4.37,8.83-8.97,19.35-17.52,27.22-2.97,2.73-7.32,1.91-10.61-.82-3.34-2.77-5.4-6.61-3.27-10.58,4.46-8.31,9.35-16.44,14.62-24.27,2.46-3.66,6.87-3.96,10.89-2.29,3.85,1.6,5.87,4.74,5.9,10.74Z"/><path d="M343.24,111.48c4.46-.01,7.97,1.93,9.37,6.09,4.34,12.89,8.55,25.82,12.39,38.86,1.62,5.48-1.82,10.79-6.88,12.12-5.38,1.42-10.24-1.12-12.12-6.8-4.11-12.44-8.14-24.92-11.91-37.46-2.03-6.77,2.44-12.71,9.15-12.81Z"/><path d="M328.5,74.48c5.43,.08,9.83,4.5,9.82,9.89-.01,5.29-4.54,9.85-9.86,9.92-5.47,.07-10.24-4.77-10.07-10.21,.17-5.38,4.7-9.68,10.11-9.6Z"/><path d="M188.81,130.08c-.73,11.26-1.36,22.53-2.22,33.79-.48,6.27-4.69,10.11-10.3,9.91-5.52-.19-9.69-4.51-9.57-10.64,.42-20.4,.98-40.81,1.65-61.2,.19-5.87,4.42-9.93,9.67-10,5.36-.07,9.82,3.97,10.09,10.25,.39,9.28,.1,18.59,.1,27.89l.58,.02Z"/><path d="M180.84,203.62c-.01,5.43-4.37,9.88-9.74,9.94-5.51,.06-10.2-4.71-10.04-10.21,.15-5.31,4.79-9.79,10.06-9.72,5.35,.08,9.73,4.58,9.72,9.99Z"/></svg>