<?xml version="1.0" encoding="UTF-8"?><svg id="Layer_1" xmlns="http://www.w3.org/2000/svg" viewBox="0 0 415.44 511.18"><path d="M372.42,511.18H42.95c-.44-.22-.86-.58-1.32-.64C17.95,507.56,0,487.39,0,461.73,.03,324.35-.06,186.97,.22,49.59c.02-7.4,1.76-15.39,4.89-22.08C14.07,8.38,30.28,.1,51.03,.1,134.04,.09,217.04,.14,300.05,0c7.21-.01,12.65,2.4,17.66,7.45,30,30.22,60.11,60.33,90.34,90.32,5.06,5.02,7.4,10.49,7.39,17.68-.15,72.51-.09,145.03-.09,217.54,0,42.58,0,85.15,0,127.73,0,16.83-6.08,30.73-19.66,41.06-6.9,5.25-14.98,7.58-23.28,9.39Zm10.98-383.32c-20.73,0-40.68,.02-60.63,0-22.01-.02-35.17-13.1-35.21-34.97-.03-18.46,0-36.92,0-55.39v-5.47h-6.19c-76.52,0-153.04,0-229.56,0-14.21,0-19.83,5.67-19.83,20.01,0,135.72,0,271.44,0,407.16,0,14.35,5.62,20.03,19.81,20.03,103.97,0,207.94,0,311.91,0,13.96,0,19.71-5.72,19.72-19.63,0-108.61,0-217.22,0-325.82v-5.92Z"/><path d="M351.22,224.04v31.34H64.32v-31.34H351.22Z"/><path d="M351.22,303.9v31.33H64.32v-31.33H351.22Z"/><path d="M64.15,415.01v-31.35h223.01v31.35H64.15Z"/><path d="M351.23,383.67v31.33h-31.42v-31.33h31.42Z"/></svg>