<?xml version="1.0" encoding="UTF-8"?><svg id="Layer_1" xmlns="http://www.w3.org/2000/svg" viewBox="0 0 1080 1080"><defs><style>.cls-1{fill:#fff;}.cls-2{fill:#e32084;}</style></defs><circle class="cls-1" cx="540" cy="540" r="540"/><path class="cls-2" d="M356.79,612.52c45.2-22.45,105.55-46.7,158.23-99.33,6.18,13.36,12.13,26.21,18.52,40.04,27.51-23.04,50.39-49.95,74.36-77.75,.93,9.94,1.86,19.88,3.03,32.39,16.81-16.83,33.47-32.01,48.31-48.79,14.97-16.93,28.15-35.44,42.25-53.44,5.19,22.31,4.79,45.33-1.21,68.32-6.16,23.59-20.79,41.13-40.54,54.64,10.29,7.17,20.4,12.98,29.05,20.49,18.82,16.34,28.32,37.99,32.14,62.24,5.31,33.69,2.04,65.95-18.17,94.66-19.38,27.52-47.21,42.61-79.21,49.5-18.57,4-37.84,6.28-56.83,6.54-59.42,.81-118.85,.31-178.28,.28-3.05,0-6.09-.38-9.14-.46-11.12-.27-19.17-4.81-22.53-15.99v-133.34Zm16.67-295c-7.96,2.32-13.22,7.66-16.67,15,0,91.11,0,182.22,0,273.34,.72-.38,1.53-.64,2.13-1.15,46.06-39.39,89.81-81.08,126.47-129.59,11.6-15.35,22.02-31.6,33.44-48.1,5.52,11.02,10.9,21.78,16.61,33.19,21.91-14.2,41.82-29.06,52.77-52.72,9.34-20.18,7.38-39.37-6.94-56.77-11.14-13.54-25.94-21.48-42.37-26.48-8.9-2.71-18.07-4.51-27.12-6.72h-138.34Z"/></svg>