<?xml version="1.0" encoding="UTF-8"?><svg id="Layer_1" xmlns="http://www.w3.org/2000/svg" viewBox="0 0 1030.52 310.59"><defs><style>.cls-1{fill:#e32084;}.cls-2{fill:#565656;}</style></defs><path class="cls-2" d="M1030.52,108.31c-.75,6.01-1.25,12.06-2.3,18.01-7.54,42.75-39.47,74.49-82.18,81.39-8.47,1.37-17.13,1.99-25.71,2.08-25.35,.27-50.7,.1-76.05,.1h-4.79V2.69c1.37-.08,2.53-.2,3.69-.2,27.61-.01,55.23-.58,82.82,.13,36.36,.93,66.85,14.26,87.68,45.46,10.4,15.57,15.33,33.02,16.19,51.67,.06,1.27,.43,2.53,.65,3.79v4.78Zm-133.67,48.54c10.81,0,21.37,.96,31.69-.21,19.04-2.16,32.63-12.47,39.47-30.7,3.66-9.74,4.33-19.91,2.58-30.16-3.65-21.37-17.71-36.29-38.97-39.6-10.39-1.62-21.15-.91-31.74-1.22-1-.03-2.01,.18-3.02,.28v101.6Z"/><path class="cls-1" d="M0,140.96c21.6-10.73,50.44-22.31,75.61-47.46,2.95,6.38,5.8,12.53,8.85,19.13,13.15-11.01,24.08-23.87,35.53-37.15,.44,4.75,.89,9.5,1.45,15.48,8.03-8.04,15.99-15.3,23.08-23.31,7.15-8.09,13.45-16.93,20.19-25.54,2.48,10.66,2.29,21.66-.58,32.65-2.94,11.27-9.93,19.65-19.37,26.11,4.91,3.42,9.75,6.2,13.88,9.79,8.99,7.81,13.53,18.15,15.36,29.74,2.54,16.1,.98,31.51-8.68,45.23-9.26,13.15-22.56,20.36-37.85,23.65-8.87,1.91-18.08,3-27.15,3.13-28.39,.39-56.79,.15-85.19,.13-1.46,0-2.91-.18-4.37-.22-5.31-.13-9.16-2.3-10.76-7.64v-63.71Z"/><path class="cls-1" d="M74.06,0c4.32,1.06,8.71,1.92,12.96,3.21,7.85,2.39,14.93,6.19,20.25,12.65,6.84,8.32,7.78,17.49,3.31,27.13-5.23,11.31-14.75,18.41-25.22,25.19-2.73-5.45-5.3-10.59-7.94-15.86-5.46,7.88-10.44,15.65-15.98,22.98C43.93,98.48,23.02,118.4,1.02,137.22c-.29,.25-.68,.37-1.02,.55,0-43.54,0-87.07,0-130.61C1.65,3.66,4.16,1.11,7.96,0H74.06Z"/><path class="cls-2" d="M440.4,310.59c-6.16-13.57-12.32-27.14-18.48-40.71l-.88,.07c-1.78,13.16-3.56,26.33-5.37,39.72h-20.58c3.68-24.31,7.34-48.44,11.02-72.77,6.38,0,12.35-.14,18.3,.13,1.1,.05,2.59,1.57,3.12,2.77,4.86,10.87,9.55,21.81,14.29,32.74,.42,.96,.86,1.92,1.61,3.59,2.04-4.59,3.87-8.63,5.64-12.7,3.45-7.88,6.96-15.73,10.25-23.67,.91-2.21,2.11-2.97,4.44-2.91,5.55,.15,11.12,.05,17.1,.05,3.64,24.29,7.25,48.33,10.91,72.72h-20.47c-1.81-13.17-3.64-26.49-5.59-40.67-.93,1.76-1.56,2.82-2.07,3.93-5.14,11.18-10.24,22.37-15.39,33.55-.66,1.43-1.51,2.78-2.27,4.17h-5.57Z"/><path class="cls-2" d="M247.68,310.59c-3.55-.81-7.19-1.35-10.65-2.47-16.72-5.41-26.64-20.11-25.7-37.79,1.05-19.92,13.1-33.38,31.13-36.28,18.86-3.03,35.82,4.97,43.02,20.4,1.08,2.32,1.7,4.87,2.75,7.96-7.21,0-13.67,.08-20.12-.09-.87-.02-1.92-1.18-2.54-2.05-4.58-6.42-12.24-9.26-19.96-7.29-7.67,1.96-12.49,7.65-13.27,15.94-.74,7.85,.83,15.02,8.04,19.41,6.79,4.14,13.95,3.75,20.72-.29,2.06-1.23,3.61-3.29,4.99-5.91h-17.36v-12.95h39.79c.39,9.45-1.9,17.95-7.2,25.52-6.37,9.1-15.29,14.02-26.32,15.18-.87,.09-1.7,.46-2.55,.71h-4.78Z"/><path class="cls-2" d="M877.62,310.59c-.15-1.17-.42-2.35-.42-3.52-.02-22.15-.02-44.31,0-66.46,0-1.03,.17-2.07,.29-3.4,5.49,0,10.79-.2,16.06,.14,1.33,.09,2.84,1.67,3.78,2.93,8.28,11.16,16.44,22.4,25.33,34.58v-37.38h19.63c.09,1.07,.26,2.1,.26,3.13,.02,22.15,.02,44.31,0,66.46,0,1.17-.27,2.35-.42,3.52h-15.93c-9.54-12.83-19.08-25.66-28.63-38.49l-.84,.4v38.09h-19.11Z"/><path class="cls-2" d="M989.11,310.59c-2.53-.52-5.08-1.01-7.6-1.58-17.98-4.04-29.43-19.47-28.94-38.98,.45-18.24,13.21-33,31.1-35.98,18.86-3.14,36.32,5.15,43.28,20.67,1,2.23,1.55,4.66,2.54,7.7-7.18,0-13.62,.06-20.06-.08-.79-.02-1.75-.98-2.32-1.74-5.64-7.56-14.57-10.25-22.85-6.81-7.85,3.26-12.22,12.1-10.6,21.43,2.52,14.53,17.83,20.85,29.71,12.19,1.65-1.2,2.9-2.95,5.18-5.34h-18.45v-12.91h40.41v1.59c-.26,1.38-.66,2.76-.76,4.15-1.15,16-11.72,29.41-26.76,33.72-2.98,.85-6.07,1.31-9.11,1.95h-4.78Z"/><path class="cls-2" d="M145.74,310.59c-.15-1.17-.42-2.35-.42-3.52-.03-22.15-.02-44.3,0-66.45,0-1.03,.17-2.07,.27-3.22,12.39,0,24.62-.6,36.74,.18,10.46,.68,18.38,8.48,20.96,18.46,2.75,10.66-.5,19.95-9.32,26.72-.31,.24-.57,.54-1,.95,4.69,8.94,9.39,17.91,14.1,26.87h-22.3c-3.23-6.05-6.47-12.08-9.67-18.14-2.67-5.06-3.5-5.43-9.54-3.79,0,3.21,.09,6.5-.02,9.79-.14,4.05-.45,8.1-.68,12.14h-19.11Zm20.13-55.88v16.35c4.25-.32,8.23-.29,12.06-1.01,3.7-.7,5.36-3.56,5.31-7.31-.05-3.8-1.98-6.43-5.63-7.08-3.71-.67-7.55-.64-11.75-.95Z"/><path class="cls-2" d="M578.97,310.59v-72.76c.51-.25,.85-.55,1.19-.55,11.54,0,23.1-.46,34.6,.17,9.86,.53,17.43,5.76,21.15,15.06,3.81,9.51,2.88,18.74-4.16,26.73-1.47,1.66-3.28,3.02-5.08,4.64,4.13,7.59,8.26,15.11,12.3,22.68,.65,1.23,.89,2.67,1.32,4.02h-21.5c-3.37-6.11-6.77-12.21-10.1-18.34-2.68-4.93-3.14-5.15-9.81-3.51v21.85h-19.91Zm20.62-55.27v15.45c2.44,0,4.79,.02,7.14,0,1.19-.01,2.41,.03,3.57-.19,4.1-.77,6.84-3.84,6.88-7.57,.05-3.84-2.42-7.01-6.73-7.58-3.47-.46-7.06-.09-10.87-.09Z"/><path class="cls-2" d="M97.96,310.59c-3.17-.74-6.41-1.28-9.5-2.27-12.59-4.05-20.04-14.26-20.08-27.44-.05-13.93-.01-27.87-.01-41.8,0-1.17,0-2.34,0-3.78h20.54c.07,1.34,.19,2.74,.19,4.13,.02,13.27-.01,26.54,.02,39.81,.02,7.5,4.44,12.22,11.24,12.1,6.56-.12,10.96-4.86,11-12.08,.07-13.14,.02-26.27,.02-39.41,0-1.44,0-2.87,0-4.56h20.54c.07,1.38,.19,2.78,.19,4.18,.01,13.4,.02,26.81,0,40.21-.01,16.7-10.83,28.55-27.56,30.23-.88,.09-1.74,.46-2.61,.69h-3.98Z"/><path class="cls-2" d="M649.85,310.59c-.15-1.17-.42-2.35-.42-3.52-.03-22.15-.02-44.3,0-66.45,0-1.03,.17-2.07,.27-3.25h19.95v28.55l.82,.3c1.71-2.71,3.43-5.42,5.14-8.14,3.8-6.06,7.48-12.2,11.5-18.11,.91-1.34,2.99-2.58,4.59-2.65,6.6-.29,13.21-.12,20.38-.12-.8,1.41-1.29,2.43-1.91,3.36-6.35,9.62-12.62,19.29-19.16,28.78-1.65,2.4-1.52,3.95,.08,6.25,6.98,9.99,13.77,20.11,20.58,30.21,1.02,1.51,1.79,3.19,2.68,4.79h-23.89l-19.88-31.17-.82,.32v30.85h-19.91Z"/><path class="cls-2" d="M0,284.31H19.96c3.51,7.48,7.96,9.89,13.39,7.09,1.73-.89,3.73-3.17,3.78-4.87,.05-1.66-1.88-4.07-3.57-4.94-2.89-1.48-6.26-2.01-9.43-2.93-2.67-.78-5.37-1.45-7.99-2.35-10.7-3.67-15.66-10.51-15.34-20.97,.32-10.33,6.22-17.59,16.8-20.43,8.27-2.21,16.54-2.09,24.62,.88,9.11,3.35,14.39,11.59,13.88,21.6h-19.67c-2.15-5.58-5.68-7.87-10.47-6.18-1.72,.61-3.77,2.44-4.13,4.06-.28,1.24,1.54,3.64,3.01,4.41,2.77,1.45,5.94,2.14,8.97,3.08,3.66,1.14,7.42,1.98,10.98,3.37,8.88,3.47,13.87,9.92,14.03,19.65,.17,9.99-5.14,18.12-14.46,21.62-4,1.5-8.32,2.15-12.5,3.19h-4.78c-2.52-.52-5.04-1.03-7.56-1.56-10.22-2.16-16.34-8.7-19.51-18.35v-6.37Z"/><path class="cls-2" d="M494.56,310.59c3.38-8.86,6.71-17.75,10.14-26.59,5.69-14.65,11.5-29.25,17.13-43.92,.86-2.23,1.97-3.03,4.33-2.94,4.76,.18,9.54-.1,14.3,.16,1.2,.07,2.96,1.18,3.4,2.25,9.26,22.74,18.38,45.54,27.49,68.35,.33,.82,.31,1.79,.46,2.68h-21.5c-1.08-2.95-2.32-5.86-3.19-8.87-.73-2.53-1.92-3.67-4.73-3.5-4.07,.25-8.18,.06-12.27,.06q-9.72,0-12.91,8.99c-.39,1.1-.76,2.21-1.15,3.32h-21.5Zm38.48-50.23c-2.76,7.8-5.15,14.57-7.65,21.64h15.32c-2.51-7.07-4.88-13.77-7.67-21.64Z"/><path class="cls-2" d="M719.93,310.59v-73.09h46.74v17.11h-26.14v10.54h23.38v16.51h-23.3v10.49h27.09v18.44h-47.78Z"/><path class="cls-2" d="M298.64,310.59v-73.09h46.74v17.11h-26.14v10.54h23.38v16.51h-23.3v10.49h27.09v18.44h-47.78Z"/><path class="cls-2" d="M794,310.59v-55.21h-19.74v-17.93h59.38v17.81h-19.73v55.33h-19.91Z"/><path class="cls-2" d="M843.37,310.59c-.23-1.01-.67-2.02-.67-3.03-.04-22.68-.03-45.37-.02-68.05,0-.63,.13-1.26,.23-2.09h20.37v73.17h-19.91Z"/><path class="cls-2" d="M798.83,209.88c-15.32,0-30.31,.09-45.29-.14-1.38-.02-3.05-1.81-4.05-3.17-19.87-27.02-39.66-54.1-59.46-81.17-6.49-8.87-12.99-17.75-20.15-27.53v111.82h-55.2V2.48c11.38,0,22.51-.03,33.64,.01,5.29,.02,11.4-1.45,15.65,.7,4.25,2.15,6.7,7.92,9.82,12.19,22.42,30.57,44.82,61.17,67.22,91.76,.69,.94,1.43,1.83,2.68,3.41V2.76h55.13V209.88Z"/><path class="cls-2" d="M195.34,2.48c1.32,0,2.36,0,3.39,0,29.45,0,58.91-.25,88.36,.09,18.2,.21,35.06,5.3,49.34,17.1,18.91,15.63,26.52,36.27,25.4,60.25-1.08,23.02-11.7,40.86-30.98,53.53-.42,.28-.79,.64-1.49,1.2,13.56,24.86,27.09,49.66,40.88,74.93-1.75,.13-2.88,.29-4.02,.3-18.71,.02-37.41-.05-56.12,.08-2.8,.02-4.22-.92-5.49-3.35-9.88-18.88-19.97-37.66-29.82-56.56-1.42-2.73-2.99-3.77-6.07-3.6-5.27,.29-10.56,.08-16.2,.08v62.98h-57.17V2.48Zm57.2,95.39c10.45,0,20.68,.67,30.78-.17,11.83-.99,19.51-9.76,19.97-20.98,.45-11.07-6.37-20.81-17.4-22.25-10.93-1.43-22.09-1.07-33.35-1.5v44.91Z"/><path class="cls-2" d="M594.25,209.65c-1.63,.09-2.91,.22-4.19,.22-18.18,.01-36.36-.1-54.53,.11-3.36,.04-4.51-1.2-5.44-4.12-2.84-8.95-6.06-17.78-8.97-26.7-.73-2.23-1.72-3.1-4.18-3.09-22.29,.1-44.58,.1-66.87,0-2.38,0-3.45,.72-4.19,3-3.03,9.31-6.19,18.57-9.53,27.77-.45,1.25-2.17,2.9-3.31,2.91-19.1,.17-38.21,.11-57.32,.08-.36,0-.72-.2-1.53-.44,2.92-7.44,5.81-14.77,8.69-22.1,23.69-60.33,47.4-120.66,71-181.03,1.16-2.96,2.56-3.91,5.73-3.88,16.19,.18,32.37,.13,48.56,.03,2.32-.01,3.52,.65,4.41,2.88,26.94,67.3,53.95,134.58,80.94,201.86,.28,.69,.43,1.42,.74,2.49Zm-133.29-78.53h45.04c-7.51-21.02-14.87-41.64-22.23-62.26l-.87,.19c-7.3,20.64-14.59,41.28-21.94,62.07Z"/></svg>